<?xml version="1.0" encoding="UTF-8" standalone="no"?>
<!DOCTYPE svg PUBLIC "-//W3C//DTD SVG 1.1//EN"
 "http://www.w3.org/Graphics/SVG/1.1/DTD/svg11.dtd">
<!-- Generated by graphviz version 13.1.2 (20250808.2320)
 -->
<!-- Pages: 1 -->
<svg width="643pt" height="393pt"
 viewBox="0.00 0.00 643.00 393.00" xmlns="http://www.w3.org/2000/svg" xmlns:xlink="http://www.w3.org/1999/xlink">
<g id="graph0" class="graph" transform="scale(1 1) rotate(0) translate(4 388.75)">
<polygon fill="white" stroke="none" points="-4,4 -4,-388.75 639.12,-388.75 639.12,4 -4,4"/>
<text xml:space="preserve" text-anchor="middle" x="317.56" y="-341.35" font-family="Times,serif" font-size="12.00">Incident Organization Chart</text>
<text xml:space="preserve" text-anchor="middle" x="317.56" y="-327.1" font-family="Times,serif" font-size="12.00">FLOCOM &#45; DR 220&#45;25</text>
<text xml:space="preserve" text-anchor="middle" x="317.56" y="-312.85" font-family="Times,serif" font-size="12.00">Operational Period: 18:00 20/10/2024 to 17:59 21/10/2024</text>
<!-- cmd&#45;dro -->
<g id="node1" class="node">
<title>cmd&#45;dro</title>
<path fill="#ffcccc" stroke="black" d="M297.88,-292C297.88,-292 206.12,-292 206.12,-292 200.12,-292 194.12,-286 194.12,-280 194.12,-280 194.12,-258 194.12,-258 194.12,-252 200.12,-246 206.12,-246 206.12,-246 297.88,-246 297.88,-246 303.88,-246 309.88,-252 309.88,-258 309.88,-258 309.88,-280 309.88,-280 309.88,-286 303.88,-292 297.88,-292"/>
<text xml:space="preserve" text-anchor="start" x="220.5" y="-279.5" font-family="Arial" font-weight="bold" font-size="10.00">DRO Director</text>
<text xml:space="preserve" text-anchor="start" x="210.75" y="-269.5" font-family="Arial" font-weight="bold" font-size="10.00">Virginia Mewborn</text>
<text xml:space="preserve" text-anchor="start" x="207" y="-260.45" font-family="Arial" font-size="9.00">Phone: 917&#45;670&#45;8334</text>
<text xml:space="preserve" text-anchor="start" x="202.12" y="-251.45" font-family="Arial" font-size="9.00">Email: Virginia.Mewborn</text>
</g>
<!-- cmd&#45;rcco -->
<g id="node2" class="node">
<title>cmd&#45;rcco</title>
<path fill="#ffcccc" stroke="black" d="M94,-210C94,-210 12,-210 12,-210 6,-210 0,-204 0,-198 0,-198 0,-176 0,-176 0,-170 6,-164 12,-164 12,-164 94,-164 94,-164 100,-164 106,-170 106,-176 106,-176 106,-198 106,-198 106,-204 100,-210 94,-210"/>
<text xml:space="preserve" text-anchor="start" x="38" y="-197.5" font-family="Arial" font-weight="bold" font-size="10.00">RCCO</text>
<text xml:space="preserve" text-anchor="start" x="28.25" y="-187.5" font-family="Arial" font-weight="bold" font-size="10.00">Ryan Lock</text>
<text xml:space="preserve" text-anchor="start" x="8" y="-178.45" font-family="Arial" font-size="9.00">Phone: 850&#45;354&#45;2342</text>
<text xml:space="preserve" text-anchor="start" x="14.75" y="-169.45" font-family="Arial" font-size="9.00">Email: Ryan.Lock3</text>
</g>
<!-- cmd&#45;dro&#45;&gt;cmd&#45;rcco -->
<g id="edge1" class="edge">
<title>cmd&#45;dro&#45;&gt;cmd&#45;rcco</title>
<path fill="none" stroke="gray" d="M196.04,-245.5C170.84,-235.37 140.99,-223.37 115.1,-212.97"/>
<polygon fill="gray" stroke="gray" points="116.36,-210.45 107.89,-210.07 114.27,-215.65 116.36,-210.45"/>
</g>
<!-- cmd&#45;cos -->
<g id="node3" class="node">
<title>cmd&#45;cos</title>
<path fill="#ffcccc" stroke="black" d="M226.12,-210C226.12,-210 135.88,-210 135.88,-210 129.88,-210 123.88,-204 123.88,-198 123.88,-198 123.88,-176 123.88,-176 123.88,-170 129.88,-164 135.88,-164 135.88,-164 226.12,-164 226.12,-164 232.12,-164 238.12,-170 238.12,-176 238.12,-176 238.12,-198 238.12,-198 238.12,-204 232.12,-210 226.12,-210"/>
<text xml:space="preserve" text-anchor="start" x="150.62" y="-197.5" font-family="Arial" font-weight="bold" font-size="10.00">Chief of Staff</text>
<text xml:space="preserve" text-anchor="start" x="144.62" y="-187.5" font-family="Arial" font-weight="bold" font-size="10.00">Janice Vannatta</text>
<text xml:space="preserve" text-anchor="start" x="136" y="-178.45" font-family="Arial" font-size="9.00">Phone: 601&#45;325&#45;3656</text>
<text xml:space="preserve" text-anchor="start" x="131.88" y="-169.45" font-family="Arial" font-size="9.00">Email: Janice.Vannatta4</text>
</g>
<!-- cmd&#45;dro&#45;&gt;cmd&#45;cos -->
<g id="edge2" class="edge">
<title>cmd&#45;dro&#45;&gt;cmd&#45;cos</title>
<path fill="none" stroke="gray" d="M232.22,-245.72C224.44,-236.95 215.4,-226.76 207.09,-217.4"/>
<polygon fill="gray" stroke="gray" points="209.33,-215.7 201.92,-211.57 205.14,-219.42 209.33,-215.7"/>
</g>
<!-- ops&#45;ad -->
<g id="node4" class="node">
<title>ops&#45;ad</title>
<path fill="#ccddff" stroke="black" d="M379.62,-210C379.62,-210 268.38,-210 268.38,-210 262.38,-210 256.38,-204 256.38,-198 256.38,-198 256.38,-176 256.38,-176 256.38,-170 262.38,-164 268.38,-164 268.38,-164 379.62,-164 379.62,-164 385.62,-164 391.62,-170 391.62,-176 391.62,-176 391.62,-198 391.62,-198 391.62,-204 385.62,-210 379.62,-210"/>
<text xml:space="preserve" text-anchor="start" x="289.5" y="-197.5" font-family="Arial" font-weight="bold" font-size="10.00">AD Operations</text>
<text xml:space="preserve" text-anchor="start" x="274.5" y="-187.5" font-family="Arial" font-weight="bold" font-size="10.00">Patricia DAlessandro</text>
<text xml:space="preserve" text-anchor="start" x="279" y="-178.45" font-family="Arial" font-size="9.00">Phone: 319&#45;404&#45;2096</text>
<text xml:space="preserve" text-anchor="start" x="264.38" y="-169.45" font-family="Arial" font-size="9.00">Email: Patricia.DAlessandro2</text>
</g>
<!-- cmd&#45;dro&#45;&gt;ops&#45;ad -->
<g id="edge3" class="edge">
<title>cmd&#45;dro&#45;&gt;ops&#45;ad</title>
<path fill="none" stroke="gray" d="M272.06,-245.72C279.95,-236.95 289.12,-226.76 297.54,-217.4"/>
<polygon fill="gray" stroke="gray" points="299.52,-219.39 302.79,-211.57 295.36,-215.64 299.52,-219.39"/>
</g>
<!-- log&#45;ad -->
<g id="node8" class="node">
<title>log&#45;ad</title>
<path fill="#ccffcc" stroke="black" d="M575.75,-210C575.75,-210 486.25,-210 486.25,-210 480.25,-210 474.25,-204 474.25,-198 474.25,-198 474.25,-176 474.25,-176 474.25,-170 480.25,-164 486.25,-164 486.25,-164 575.75,-164 575.75,-164 581.75,-164 587.75,-170 587.75,-176 587.75,-176 587.75,-198 587.75,-198 587.75,-204 581.75,-210 575.75,-210"/>
<text xml:space="preserve" text-anchor="start" x="500.62" y="-197.5" font-family="Arial" font-weight="bold" font-size="10.00">AD Logistics</text>
<text xml:space="preserve" text-anchor="start" x="493.5" y="-187.5" font-family="Arial" font-weight="bold" font-size="10.00">Marvin Williams</text>
<text xml:space="preserve" text-anchor="start" x="486" y="-178.45" font-family="Arial" font-size="9.00">Phone: 931&#45;237&#45;3823</text>
<text xml:space="preserve" text-anchor="start" x="482.25" y="-169.45" font-family="Arial" font-size="9.00">Email: Marvin.Williams2</text>
</g>
<!-- cmd&#45;dro&#45;&gt;log&#45;ad -->
<g id="edge7" class="edge">
<title>cmd&#45;dro&#45;&gt;log&#45;ad</title>
<path fill="none" stroke="gray" d="M310.15,-251.33C355.31,-238.38 417.95,-220.42 464.99,-206.93"/>
<polygon fill="gray" stroke="gray" points="465.51,-209.69 472.43,-204.8 463.97,-204.31 465.51,-209.69"/>
</g>
<!-- ops&#45;zone1 -->
<g id="node5" class="node">
<title>ops&#45;zone1</title>
<path fill="#ccddff" stroke="black" d="M194.5,-128C194.5,-128 85.5,-128 85.5,-128 79.5,-128 73.5,-122 73.5,-116 73.5,-116 73.5,-94 73.5,-94 73.5,-88 79.5,-82 85.5,-82 85.5,-82 194.5,-82 194.5,-82 200.5,-82 206.5,-88 206.5,-94 206.5,-94 206.5,-116 206.5,-116 206.5,-122 200.5,-128 194.5,-128"/>
<text xml:space="preserve" text-anchor="start" x="81.5" y="-115.5" font-family="Arial" font-weight="bold" font-size="10.00">Zone Coordinator&#45;Zone 1</text>
<text xml:space="preserve" text-anchor="start" x="113" y="-105.5" font-family="Arial" font-weight="bold" font-size="10.00">Rick Schou</text>
<text xml:space="preserve" text-anchor="start" x="95" y="-96.45" font-family="Arial" font-size="9.00">Phone: 980&#45;721&#45;8710</text>
<text xml:space="preserve" text-anchor="start" x="102.88" y="-87.45" font-family="Arial" font-size="9.00">Email: Rick.Schou</text>
</g>
<!-- ops&#45;ad&#45;&gt;ops&#45;zone1 -->
<g id="edge4" class="edge">
<title>ops&#45;ad&#45;&gt;ops&#45;zone1</title>
<path fill="none" stroke="gray" d="M272.26,-163.5C249.82,-153.75 223.4,-142.26 200.1,-132.13"/>
<polygon fill="gray" stroke="gray" points="201.52,-129.69 193.06,-129.07 199.28,-134.83 201.52,-129.69"/>
</g>
<!-- ops&#45;zone2 -->
<g id="node6" class="node">
<title>ops&#45;zone2</title>
<path fill="#ccddff" stroke="black" d="M345.5,-128C345.5,-128 236.5,-128 236.5,-128 230.5,-128 224.5,-122 224.5,-116 224.5,-116 224.5,-94 224.5,-94 224.5,-88 230.5,-82 236.5,-82 236.5,-82 345.5,-82 345.5,-82 351.5,-82 357.5,-88 357.5,-94 357.5,-94 357.5,-116 357.5,-116 357.5,-122 351.5,-128 345.5,-128"/>
<text xml:space="preserve" text-anchor="start" x="232.5" y="-115.5" font-family="Arial" font-weight="bold" font-size="10.00">Zone Coordinator&#45;Zone 2</text>
<text xml:space="preserve" text-anchor="start" x="261.75" y="-105.5" font-family="Arial" font-weight="bold" font-size="10.00">Bene Hunter</text>
<text xml:space="preserve" text-anchor="start" x="246" y="-96.45" font-family="Arial" font-size="9.00">Phone: 941&#45;224&#45;3350</text>
<text xml:space="preserve" text-anchor="start" x="248.62" y="-87.45" font-family="Arial" font-size="9.00">Email: Bene.Hunter2</text>
</g>
<!-- ops&#45;ad&#45;&gt;ops&#45;zone2 -->
<g id="edge5" class="edge">
<title>ops&#45;ad&#45;&gt;ops&#45;zone2</title>
<path fill="none" stroke="gray" d="M314.81,-163.72C311.4,-155.46 307.48,-145.95 303.81,-137.06"/>
<polygon fill="gray" stroke="gray" points="306.47,-136.17 300.83,-129.84 301.3,-138.3 306.47,-136.17"/>
</g>
<!-- ops&#45;mass -->
<g id="node7" class="node">
<title>ops&#45;mass</title>
<path fill="#ccddff" stroke="black" d="M474.62,-128C474.62,-128 387.38,-128 387.38,-128 381.38,-128 375.38,-122 375.38,-116 375.38,-116 375.38,-94 375.38,-94 375.38,-88 381.38,-82 387.38,-82 387.38,-82 474.62,-82 474.62,-82 480.62,-82 486.62,-88 486.62,-94 486.62,-94 486.62,-116 486.62,-116 486.62,-122 480.62,-128 474.62,-128"/>
<text xml:space="preserve" text-anchor="start" x="383.75" y="-115.5" font-family="Arial" font-weight="bold" font-size="10.00">HQ Mass Care Chief</text>
<text xml:space="preserve" text-anchor="start" x="394.25" y="-105.5" font-family="Arial" font-weight="bold" font-size="10.00">Brenda Bridges</text>
<text xml:space="preserve" text-anchor="start" x="386" y="-96.45" font-family="Arial" font-size="9.00">Phone: 760&#45;987&#45;5452</text>
<text xml:space="preserve" text-anchor="start" x="383.38" y="-87.45" font-family="Arial" font-size="9.00">Email: brenda.bridges2</text>
</g>
<!-- ops&#45;ad&#45;&gt;ops&#45;mass -->
<g id="edge6" class="edge">
<title>ops&#45;ad&#45;&gt;ops&#45;mass</title>
<path fill="none" stroke="gray" d="M354.09,-163.5C366.39,-154.31 380.74,-143.58 393.7,-133.89"/>
<polygon fill="gray" stroke="gray" points="395.19,-136.27 399.92,-129.23 391.84,-131.78 395.19,-136.27"/>
</g>
<!-- log&#45;chief -->
<g id="node9" class="node">
<title>log&#45;chief</title>
<path fill="#ccffcc" stroke="black" d="M609.25,-128C609.25,-128 516.75,-128 516.75,-128 510.75,-128 504.75,-122 504.75,-116 504.75,-116 504.75,-94 504.75,-94 504.75,-88 510.75,-82 516.75,-82 516.75,-82 609.25,-82 609.25,-82 615.25,-82 621.25,-88 621.25,-94 621.25,-94 621.25,-116 621.25,-116 621.25,-122 615.25,-128 609.25,-128"/>
<text xml:space="preserve" text-anchor="start" x="518.75" y="-115.5" font-family="Arial" font-weight="bold" font-size="10.00">HQ Logistics Chief</text>
<text xml:space="preserve" text-anchor="start" x="522.12" y="-105.5" font-family="Arial" font-weight="bold" font-size="10.00">Margenia Hatfield</text>
<text xml:space="preserve" text-anchor="start" x="518" y="-96.45" font-family="Arial" font-size="9.00">Phone: 765&#45;602&#45;9133</text>
<text xml:space="preserve" text-anchor="start" x="512.75" y="-87.45" font-family="Arial" font-size="9.00">Email: Margenia.Hatfield</text>
</g>
<!-- log&#45;ad&#45;&gt;log&#45;chief -->
<g id="edge8" class="edge">
<title>log&#45;ad&#45;&gt;log&#45;chief</title>
<path fill="none" stroke="gray" d="M539.91,-163.72C543.21,-155.46 547.02,-145.95 550.58,-137.06"/>
<polygon fill="gray" stroke="gray" points="553.09,-138.32 553.46,-129.85 547.89,-136.24 553.09,-138.32"/>
</g>
<!-- log&#45;transport -->
<g id="node10" class="node">
<title>log&#45;transport</title>
<path fill="#ccffcc" stroke="black" d="M623.12,-46C623.12,-46 502.88,-46 502.88,-46 496.88,-46 490.88,-40 490.88,-34 490.88,-34 490.88,-12 490.88,-12 490.88,-6 496.88,0 502.88,0 502.88,0 623.12,0 623.12,0 629.12,0 635.12,-6 635.12,-12 635.12,-12 635.12,-34 635.12,-34 635.12,-40 629.12,-46 623.12,-46"/>
<text xml:space="preserve" text-anchor="start" x="498.88" y="-33.5" font-family="Arial" font-weight="bold" font-size="10.00">HQ Transportation Manager</text>
<text xml:space="preserve" text-anchor="start" x="539.38" y="-23.5" font-family="Arial" font-weight="bold" font-size="10.00">Lee Meyer</text>
<text xml:space="preserve" text-anchor="start" x="518" y="-14.45" font-family="Arial" font-size="9.00">Phone: 719&#45;749&#45;5672</text>
<text xml:space="preserve" text-anchor="start" x="527.38" y="-5.45" font-family="Arial" font-size="9.00">Email: Lee.Meyer</text>
</g>
<!-- log&#45;chief&#45;&gt;log&#45;transport -->
<g id="edge9" class="edge">
<title>log&#45;chief&#45;&gt;log&#45;transport</title>
<path fill="none" stroke="gray" d="M563,-81.72C563,-73.72 563,-64.54 563,-55.89"/>
<polygon fill="gray" stroke="gray" points="565.8,-55.96 563,-47.96 560.2,-55.96 565.8,-55.96"/>
</g>
</g>
</svg>
